<svg width="513" height="512" viewBox="0 0 513 512" fill="none" xmlns="http://www.w3.org/2000/svg">
<path d="M256.6 339.9C216.2 339.9 182.5 311.3 174.5 273.3H40.1001C49.6001 383.8 142.3 470.5 255.2 470.5C368.1 470.5 460.9 383.8 470.3 273.3H338.7C330.7 311.4 297 339.9 256.6 339.9Z" fill="white"/>
<path d="M304.6 464.9C394.2 443.9 462.3 367.2 470.3 273.3H417.3C412 358.5 367.3 430.7 304.6 464.9Z" fill="#DFDFDF"/>
<path d="M306.1 256C306 256 306 256 306.1 256C306 249.9 304.9 244.1 302.9 238.7C295.9 219.9 277.8 206.6 256.6 206.6C235.4 206.6 217.3 220 210.3 238.7C208.3 244.1 207.2 249.9 207.2 256H207.3C207.3 262.1 208.4 267.9 210.4 273.3C217.4 292.1 235.5 305.4 256.7 305.4C277.9 305.4 296 292 303 273.3C305 268 306.1 262.1 306.1 256Z" fill="white"/>
<path d="M256.7 172.2C297.1 172.2 330.8 200.8 338.8 238.8H473.2C463.7 128.2 371 41.5 258 41.5C145 41.5 52.3999 128.2 42.8999 238.7H174.6C182.6 200.7 216.3 172.2 256.7 172.2Z" fill="#BEBEBE"/>
<path d="M417.3 238.7H473.1C464.9 143.2 394.5 65.4 302.6 46.1C366.4 79.8 411.9 152.7 417.3 238.7Z" fill="#4B4B4B"/>
<path d="M258 41.5C371 41.5 463.7 128.2 473.1 238.7H338.7C330.7 200.7 297 172.1 256.6 172.1C216.2 172.1 182.5 200.7 174.5 238.7H42.8999C52.3999 128.2 145.1 41.5 258 41.5ZM302.9 238.7C304.9 244.1 306 249.9 306 256H306.1C306.1 262.1 305 267.9 303 273.3C296 292.1 277.9 305.4 256.7 305.4C235.5 305.4 217.4 292 210.4 273.3C208.4 267.9 207.3 262.1 207.3 256H207.2C207.2 249.9 208.3 244.1 210.3 238.7C217.3 219.9 235.4 206.6 256.6 206.6C277.8 206.6 295.9 220 302.9 238.7ZM255.2 470.6C142.2 470.6 49.4999 383.9 40.0999 273.4H174.5C182.5 311.4 216.2 340 256.6 340C297 340 330.7 311.4 338.7 273.4H470.4C460.9 383.8 368.2 470.6 255.2 470.6ZM256.6 0.299988C115.4 0.299988 0.899902 114.8 0.899902 256C0.899902 397.2 115.4 511.7 256.6 511.7C397.8 511.7 512.4 397.3 512.4 256C512.4 114.7 397.9 0.299988 256.6 0.299988Z" fill="black"/>
</svg>
